<svg width="85" height="16" viewBox="0 0 85 16" fill="none" xmlns="http://www.w3.org/2000/svg">
<path d="M1 14.9135C3.13631 14.9135 5.10775 13.7616 6.16174 11.8977L6.6886 10.9659C8.46409 7.82594 12.9665 7.80337 14.7732 10.9254L15.1137 11.5137C16.3316 13.6183 18.5741 14.9135 21 14.9135C23.2505 14.9135 25.3348 13.7252 26.4863 11.7856L27.0097 10.9042C28.9027 7.71577 33.4973 7.69219 35.4227 10.861L35.7436 11.389C37.0736 13.5779 39.4445 14.9135 42 14.9135C46.4289 14.9135 50.4578 12.3427 52.3349 8.31874L52.8419 7.23206C56.6453 -0.921032 68.1858 -0.972844 72.0618 7.14576L72.2157 7.46799C74.3879 12.018 78.9708 14.9135 84 14.9135" stroke="#CF4D69" stroke-width="2" stroke-linecap="round"/>
</svg>
