<svg width="91" height="12" viewBox="0 0 91 12" fill="none" xmlns="http://www.w3.org/2000/svg">
<path d="M1.44141 10.6569H1.87C4.61908 10.6569 7.11765 8.63749 8.27167 5.48294C10.2563 0.0578346 16.3218 -0.0610311 18.4385 5.2837L19.0554 6.84146C19.9815 9.18003 21.8728 10.6569 23.9414 10.6569M24.1914 10.6569H24.62C27.3691 10.6569 29.8677 8.63749 31.0217 5.48294C33.0063 0.0578346 39.0718 -0.0610311 41.1885 5.2837L41.8054 6.84146C42.7315 9.18003 44.6228 10.6569 46.6914 10.6569M46.1914 10.6569H46.62C49.3691 10.6569 51.8677 8.63749 53.0217 5.48294C55.0063 0.0578346 61.0718 -0.0610311 63.1885 5.2837L63.3179 5.6105C64.5428 8.70355 67.0443 10.6569 69.7803 10.6569H89.5586" stroke="#CE4C68" stroke-width="2" stroke-linecap="round"/>
</svg>
