<svg width="97" height="18" viewBox="0 0 97 18" fill="none" xmlns="http://www.w3.org/2000/svg">
<path d="M1.5 17C5.99558 17 10.0662 14.0401 11.8753 9.45564L13.6499 4.95855C15.3334 0.692299 20.612 0.25295 22.846 4.19313L23.4389 5.23892C23.7688 5.82086 24.5229 5.84519 24.8825 5.28551L26.0735 3.43213C28.4545 -0.273394 33.5624 0.371327 35.1389 4.57637L36.4452 8.06107C38.4748 13.4748 43.2332 17 48.5 17C52.9956 17 57.0662 14.0401 58.8753 9.45564L60.6499 4.95855C62.3334 0.692299 67.612 0.25295 69.846 4.19313L70.4389 5.23892C70.7688 5.82086 71.5229 5.84519 71.8825 5.28551L73.0735 3.43213C75.4545 -0.273394 80.5624 0.371327 82.1389 4.57637L83.4452 8.06107C85.4748 13.4748 90.2332 17 95.5 17" stroke="#CE4C68" stroke-width="2" stroke-linecap="round"/>
</svg>
