<svg width="95" height="18" viewBox="0 0 95 18" fill="none" xmlns="http://www.w3.org/2000/svg">
<path d="M1.5 16.7688H6.30175C10.3202 16.7688 13.9482 14.5102 15.5127 11.0346L18.8677 3.58134C20.28 0.443858 25.0166 0.447761 26.423 3.58756L27.6245 6.2699C28.176 7.50104 29.4598 8.30175 30.8821 8.30175H31.9437C33.3092 8.30175 34.4161 9.34118 34.4161 10.6234C34.4161 11.9056 35.5231 12.945 36.8886 12.945H39.1526C40.2771 12.945 41.1887 13.801 41.1887 14.8569C41.1887 15.9128 42.1003 16.7688 43.2248 16.7688H52.3017C56.3202 16.7688 59.9482 14.5102 61.5127 11.0346L64.8677 3.58134C66.28 0.443858 71.0166 0.447761 72.423 3.58756L73.6245 6.2699C74.176 7.50104 75.4598 8.30175 76.8821 8.30175H77.9437C79.3092 8.30175 80.4161 9.34118 80.4161 10.6234C80.4161 11.9056 81.5231 12.945 82.8886 12.945H85.1526C86.2771 12.945 87.1887 13.801 87.1887 14.8569C87.1887 15.9128 88.1003 16.7688 89.2248 16.7688H93.5" stroke="#CE4C68" stroke-width="2" stroke-linecap="round"/>
</svg>
