<svg width="83" height="28" viewBox="0 0 83 28" fill="none" xmlns="http://www.w3.org/2000/svg">
<path d="M1.51562 26.0163C3.5423 26.0163 5.37695 24.9354 6.19023 23.2622L9.23491 16.9985C10.3478 14.7089 13.5209 13.9291 15.7692 15.3926C18.0986 16.9089 21.3902 16.0104 22.3947 13.5839L26.7116 3.1559C27.3798 1.54191 29.9385 1.61127 30.4979 3.25854L37.2669 23.1939C37.8363 24.871 39.5541 26.0163 41.5 26.0163C43.5267 26.0163 45.3613 24.9354 46.1746 23.2622L49.2193 16.9985C50.3322 14.7089 53.5053 13.9291 55.7536 15.3926C58.083 16.9089 61.3745 16.0104 62.379 13.5839L66.696 3.1559C67.3641 1.54191 69.9229 1.61127 70.4822 3.25854L77.2513 23.1939C77.8207 24.871 79.5385 26.0163 81.4844 26.0163" stroke="#CE4C68" stroke-width="2" stroke-linecap="round"/>
</svg>
