<svg width="93" height="22" viewBox="0 0 93 22" fill="none" xmlns="http://www.w3.org/2000/svg">
<path d="M1 19.1325C2.45989 19.1325 3.78837 18.329 4.40944 17.0703L7.60159 10.6011C9.18146 7.39941 13.9175 7.28345 15.6679 10.4036L19.2975 16.8735C20.4 18.8389 23.214 19.1695 24.7847 17.5182C26.4538 15.7635 29.3444 15.7533 31.0271 17.4963L31.8827 18.3826C32.2991 18.8138 32.886 19.0592 33.501 19.0592C34.9177 19.0592 36.2042 18.3451 36.7931 17.1176L39.794 10.8623C41.357 7.60413 46.1714 7.48825 47.9051 10.667L51.3051 16.9008C52.3573 18.8301 55.1151 19.1509 56.6237 17.5196C58.2321 15.7804 61.0742 15.7704 62.6959 17.4983L63.5356 18.3929C63.9335 18.8169 64.5022 19.0592 65.0992 19.0592C66.2993 19.0592 68.0409 18.0713 68.2302 16.9423L70.735 2.00179C70.8925 1.0625 72.2974 1.02566 72.5088 1.95528L76.6237 20.0439C76.8317 20.9583 78.2063 20.9434 78.3924 20.0247L82.0265 2.0821C82.2104 1.17448 83.5624 1.14442 83.7905 2.04288L87.5692 16.9282C87.8632 18.0862 88.9512 18.9019 90.2018 18.9019H92" stroke="#CE4C68" stroke-width="2" stroke-linecap="round"/>
</svg>
