<svg width="83" height="23" viewBox="0 0 83 23" fill="none" xmlns="http://www.w3.org/2000/svg">
<path d="M1.25 17.8517C1.25 17.8517 8.72095 17.8517 17.25 17.8517C19.91 17.8517 20.75 21.2347 24.25 21.2347C27.9607 21.2347 32.4975 8.60607 34.5906 2.0932C34.9084 1.10405 36.4455 1.14261 36.72 2.14466C38.5022 8.64954 42.5921 21.1798 47.75 21.6106C50.8472 21.8693 54.4182 14.1151 56.3435 9.25561C56.7284 8.28426 58.343 8.40035 58.5969 9.41382C59.7391 13.972 62.0653 20.9181 65.75 21.6106C69.75 22.3624 70.1282 17.8517 72.75 17.8517C78.07 17.8517 81.75 17.8517 81.75 17.8517" stroke="#CE4C68" stroke-width="2" stroke-linecap="round"/>
</svg>
