<svg width="86" height="16" viewBox="0 0 86 16" fill="none" xmlns="http://www.w3.org/2000/svg">
<path d="M13.521 0.315331V0.498552H13.4873C12.4902 0.498552 11.401 1.97445 10.2533 4.83856L7.5466 11.5953H6.42366L1.78128 0.498552H0.716797V0.315331H6.22133V0.498552H4.9725L8.41662 8.91441L10.0004 4.94197C10.3691 4.009 10.5287 3.21878 10.5287 2.58032C10.5287 1.18423 9.79135 0.498552 9.0461 0.498552H8.96179V0.315331H13.5199H13.521Z" fill="white"/>
<path d="M35.3864 9.96766C34.6658 11.0602 33.417 11.6908 32.0007 11.6908C29.5705 11.6908 27.627 10.0317 27.627 7.80609C27.627 5.58044 29.4536 3.92133 31.9591 3.92133C34.6568 3.92133 35.4785 5.8356 35.4448 7.3677H30.3506C30.3506 9.54501 30.853 11.3008 32.7639 11.3008C33.8453 11.3008 34.6995 10.6792 35.2357 9.86537L35.3864 9.96878V9.96766ZM32.8055 7.18336C32.8134 7.04734 32.8134 6.91246 32.8134 6.77644C32.8134 5.32416 32.5447 4.10342 31.6488 4.10342C30.753 4.10342 30.4 5.22074 30.3494 7.18223H32.8044L32.8055 7.18336Z" fill="white"/>
<path d="M39.2469 4.10455C38.3083 4.10455 37.789 4.55193 37.789 5.03752C37.789 5.81088 38.7939 6.17057 40.0349 6.53702C41.685 7.01587 43.035 7.55767 43.035 9.1055C43.035 10.7725 41.5018 11.6897 39.9854 11.6897C39.03 11.6897 38.2926 11.3469 37.7564 10.9478C37.3034 11.0198 36.91 11.2435 36.7178 11.5942H36.5672L36.3828 8.68285L36.575 8.67499C36.7931 10.1025 38.0667 11.5155 39.9776 11.5155C41.0668 11.5155 41.5445 11.0209 41.5445 10.4229C41.5445 9.67315 40.7824 9.39326 39.2402 8.91554C37.4642 8.35688 36.475 7.63972 36.475 6.34705C36.475 4.78348 37.816 3.92133 39.2065 3.92133C40.3373 3.92133 41.0746 4.42378 41.259 4.5834C41.7783 4.55192 42.1729 4.27203 42.3235 3.92133H42.4741L42.6416 6.56175L42.4572 6.56962C41.9211 4.95771 40.5801 4.10455 39.248 4.10455H39.2469Z" fill="white"/>
<path d="M60.661 5.89967C60.661 9.11449 58.106 11.7864 54.7114 11.7864C51.3167 11.7864 48.7617 9.11449 48.7617 5.89967C48.7617 2.68485 51.3088 0.0118332 54.7114 0.0118332C58.1139 0.0118332 60.661 2.68485 60.661 5.89967ZM54.7114 0.196179C52.7252 0.196179 51.9215 2.43756 51.9215 5.89967C51.9215 9.36178 52.7263 11.6032 54.7114 11.6032C56.6965 11.6032 57.4934 9.36178 57.4934 5.89967C57.4934 2.43756 56.6976 0.196179 54.7114 0.196179Z" fill="white"/>
<path d="M76.368 13.885C76.368 13.1825 76.8289 12.5845 77.5831 12.5845C78.2452 12.5845 78.7061 13.0869 78.7061 13.6613C78.7061 14.2357 78.2699 14.7382 77.6337 14.7382C76.9975 14.7382 76.6198 14.3234 76.5355 13.8445C76.5355 14.5471 77.038 15.1215 77.8675 15.1215C78.9567 15.1215 79.485 14.2998 79.8953 13.287L80.2809 12.3293C80.3393 12.1776 80.3809 12.0337 80.3809 11.9145C80.3809 11.6594 80.2303 11.484 79.7773 11.484H79.367L76.594 4.3125H75.7812V4.12927H80.264V4.3125H79.2332L81.3364 9.78555L82.5256 6.81803C82.6684 6.46732 82.7347 6.09189 82.7347 5.73331C82.7347 4.96782 82.3997 4.31362 81.7377 4.31362H81.6286V4.1304H85.0222V4.31362H84.9637C84.1094 4.31362 83.254 5.54222 82.6515 7.02598L80.0875 13.3196C79.6345 14.4201 79.0568 15.298 77.8754 15.298C76.9705 15.298 76.3669 14.6752 76.3669 13.8861L76.368 13.885Z" fill="white"/>
<path d="M16.1672 11.2997V3.90446C14.9273 4.08769 13.737 4.12815 12.4893 4.12815V4.31137H13.5953V11.2997H12.4893V11.4829H17.2306V11.2997H16.1683H16.1672Z" fill="white"/>
<path d="M14.9356 2.70846C15.6482 2.70846 16.1417 2.1824 16.1417 1.55967C16.1417 0.93694 15.6471 0.418747 14.9356 0.418747C14.224 0.418747 13.7373 0.93694 13.7373 1.55967C13.7373 2.1824 14.2319 2.70846 14.9356 2.70846Z" fill="white"/>
<path d="M74.8684 11.2997V0.0916443C73.6364 0.274866 72.4381 0.315332 71.1904 0.315332V0.498554H72.3044V11.2997H71.2455V11.4829H75.9744V11.2997H74.8684Z" fill="white"/>
<path d="M23.3979 3.92132C22.0243 3.92132 21.2779 4.64747 21.052 5.1814V0.0916443C19.82 0.274866 18.6217 0.315332 17.374 0.315332V0.498554H18.488V11.2997H17.4145V11.4829H20.5754C20.6507 11.1558 20.8597 10.8444 21.179 10.6376C21.4892 11.2277 22.1929 11.6908 23.2821 11.6908C25.3346 11.6908 26.8431 10.1194 26.8431 7.74988C26.8431 5.38036 25.4437 3.9202 23.399 3.9202L23.3979 3.92132ZM22.4683 11.2603C21.7556 11.2603 21.3206 10.7174 21.17 10.1835C21.0272 9.65741 20.9778 8.40409 20.9778 7.3351C20.9778 6.56962 21.0025 5.89967 21.0452 5.66025C21.1374 5.14992 21.6657 4.40018 22.4525 4.40018C23.5676 4.40018 24.1285 5.73219 24.1285 7.82294C24.1285 9.9137 23.6171 11.2615 22.4694 11.2615L22.4683 11.2603Z" fill="white"/>
<path d="M70.0096 11.2997V6.60109C70.0096 4.92624 69.2475 3.9202 67.6209 3.9202C66.0877 3.9202 65.266 4.85317 64.9816 5.57932V3.90446C63.7497 4.07982 62.4761 4.12815 61.3037 4.12815V4.31137H62.4098V11.2997H61.3037V11.4829H65.9124V11.2997H64.9906V6.29759C64.9906 5.71533 65.5605 4.4946 66.5329 4.4946C67.1275 4.4946 67.4467 4.91725 67.4467 5.88282V11.2997H66.525V11.4829H71.0628V11.2997H70.0107H70.0096Z" fill="white"/>
</svg>
