<svg width="53" height="54" viewBox="0 0 53 54" fill="none" xmlns="http://www.w3.org/2000/svg">
<path opacity="0.5" d="M26.1276 -9.15527e-05C61.7672 10.969 60.5166 42.7235 26.1276 53.3084C-7.46757 42.9686 -7.7812 10.4378 26.1276 -9.15527e-05Z" fill="white"/>
<path opacity="0.5" d="M26.308 5.14728C48.3519 13.9974 47.5796 39.6186 26.308 48.1591C5.52833 39.8166 5.33428 13.5681 26.308 5.14728Z" fill="white"/>
<path opacity="0.5" d="M26.4291 9.7713C39.3034 16.7201 38.8526 36.8313 26.4291 43.5351C14.2918 36.9862 14.1801 16.381 26.4291 9.7713Z" fill="white"/>
<path d="M26.5347 14.5698C31.5076 19.5427 31.3331 33.9381 26.5347 38.7366C21.846 34.0479 21.8028 19.3016 26.5347 14.5698Z" fill="white"/>
</svg>
