<svg width="25" height="24" viewBox="0 0 25 24" fill="none" xmlns="http://www.w3.org/2000/svg">
<path d="M12.5 5L11.3961 3.45459C10.9851 2.87911 10.7795 2.59137 10.9093 2.32411C11.0391 2.05684 11.3689 2.04153 12.0286 2.01092C12.1848 2.00367 12.342 2 12.5 2C18.0228 2 22.5 6.47715 22.5 12C22.5 17.5228 18.0228 22 12.5 22C6.97715 22 2.5 17.5228 2.5 12C2.5 8.72836 4.07111 5.82368 6.5 3.99927" stroke="white" stroke-width="1.5" stroke-linecap="round" stroke-linejoin="round"/>
<path d="M8.5 10.9997C9.028 10.5797 9.508 9.88708 9.808 10.0157C10.108 10.1442 10.012 10.5677 10.012 11.2277C10.012 11.8877 10.012 14.6804 10.012 16.0037" stroke="white" stroke-width="1.5" stroke-linecap="round"/>
<path d="M16.5 10H13.8595C13.6212 10 13.416 10.1682 13.3692 10.4019L13.004 12.504C13.64 12.24 13.9607 12.1429 14.6766 12.1429C15.7126 12.1429 16.604 12.78 16.502 14.1C16.52 15.66 15.26 16.02 14.6766 16C14.0931 15.98 13.16 16.2 13 15" stroke="white" stroke-width="1.5" stroke-linecap="round" stroke-linejoin="round"/>
</svg>
