<svg width="24" height="24" viewBox="0 0 24 24" fill="none" xmlns="http://www.w3.org/2000/svg">
<path d="M9.97075 5.577L10.573 7.2495C11.242 9.10575 12.7037 10.5675 14.56 11.2365L16.2325 11.8388C16.3832 11.8935 16.3832 12.1073 16.2325 12.1613L14.56 12.7635C12.7037 13.4325 11.242 14.8943 10.573 16.7505L9.97075 18.423C9.916 18.5738 9.70225 18.5738 9.64825 18.423L9.046 16.7505C8.377 14.8943 6.91525 13.4325 5.059 12.7635L3.3865 12.1613C3.23575 12.1065 3.23575 11.8928 3.3865 11.8388L5.059 11.2365C6.91525 10.5675 8.377 9.10575 9.046 7.2495L9.64825 5.577C9.70225 5.4255 9.916 5.4255 9.97075 5.577Z" fill="white"/>
<path d="M17.4993 1.55794L17.8045 2.40469C18.1435 3.34444 18.8838 4.08469 19.8235 4.42369L20.6703 4.72894C20.7468 4.75669 20.7468 4.86469 20.6703 4.89244L19.8235 5.19769C18.8838 5.53669 18.1435 6.27694 17.8045 7.21669L17.4993 8.06344C17.4715 8.13994 17.3635 8.13994 17.3358 8.06344L17.0305 7.21669C16.6915 6.27694 15.9513 5.53669 15.0115 5.19769L14.1648 4.89244C14.0883 4.86469 14.0883 4.75669 14.1648 4.72894L15.0115 4.42369C15.9513 4.08469 16.6915 3.34444 17.0305 2.40469L17.3358 1.55794C17.3635 1.48069 17.4723 1.48069 17.4993 1.55794Z" fill="white"/>
<path d="M17.4993 15.9377L17.8045 16.7845C18.1435 17.7242 18.8838 18.4645 19.8235 18.8035L20.6703 19.1087C20.7468 19.1365 20.7468 19.2445 20.6703 19.2722L19.8235 19.5775C18.8838 19.9165 18.1435 20.6567 17.8045 21.5965L17.4993 22.4432C17.4715 22.5197 17.3635 22.5197 17.3358 22.4432L17.0305 21.5965C16.6915 20.6567 15.9513 19.9165 15.0115 19.5775L14.1648 19.2722C14.0883 19.2445 14.0883 19.1365 14.1648 19.1087L15.0115 18.8035C15.9513 18.4645 16.6915 17.7242 17.0305 16.7845L17.3358 15.9377C17.3635 15.8612 17.4723 15.8612 17.4993 15.9377Z" fill="white"/>
</svg>
