<svg width="131" height="130" viewBox="0 0 131 130" fill="none" xmlns="http://www.w3.org/2000/svg">
<path d="M119.313 40.8522L107.323 30L107.975 36.1117L103.167 39.9409L119.313 40.8522Z" fill="white"/>
<path d="M12.6176 84.4433L11.6885 84.4385C11.7059 81.0349 12.2784 77.7501 13.3906 74.6753L14.2644 74.9913C13.1885 77.966 12.6344 81.146 12.6176 84.4433Z" fill="white"/>
<path d="M15.9184 71.2839L15.1006 70.8426C16.6835 67.9091 18.7422 65.2865 21.2197 63.0474L21.8427 63.7367C19.4441 65.9045 17.4509 68.4438 15.9184 71.2839Z" fill="white"/>
<path d="M25.0511 61.2453L24.5342 60.4735C27.2715 58.6401 30.3244 57.2987 33.6083 56.4863L33.8315 57.3882C30.6526 58.1746 27.6985 59.4724 25.0511 61.2453Z" fill="white"/>
<path d="M47.4025 57.4533C45.8765 57.0651 44.278 56.804 42.651 56.6776L42.0409 56.6312C41.9182 56.6195 41.7988 56.6174 41.6723 56.6153C41.5966 56.6139 41.5208 56.6125 41.4452 56.6094L40.7829 56.5928C40.6009 56.5875 40.4291 56.5828 40.2606 56.5905L39.0382 56.6217L37.8283 56.7138L37.7578 55.7873L39.0027 55.6933L40.2274 55.662C40.4206 55.653 40.6182 55.6585 40.8091 55.664L41.4758 55.681C41.5515 55.684 41.6201 55.6852 41.6885 55.6864C41.8274 55.6888 41.9709 55.6912 42.1205 55.7056L42.7222 55.7513C44.4026 55.8819 46.0542 56.1516 47.6314 56.5529L47.4025 57.4533Z" fill="white"/>
<path d="M59.3225 63.9294C56.9381 61.7451 54.2221 60.0006 51.25 58.7446L51.6118 57.8887C54.6819 59.1861 57.4872 60.988 59.9501 63.2443L59.3225 63.9294Z" fill="white"/>
<path d="M66.7779 75.264C65.6915 72.1712 64.1188 69.3538 62.1035 66.8901L62.8227 66.3018C64.9065 68.8492 66.5321 71.761 67.6544 74.956L66.7779 75.264Z" fill="white"/>
<path d="M68.6776 88.9375L67.7832 88.6856C68.0161 87.8594 68.1661 87.0998 68.2419 86.3633C68.3243 85.584 68.3515 84.7829 68.3226 83.9809L68.3063 83.3289C68.302 83.1393 68.2981 82.9599 68.2812 82.7848L68.1871 81.5659L68.0341 80.3618C68.0012 80.1147 67.9558 79.868 67.9078 79.6069C67.8814 79.4624 67.8548 79.3178 67.8304 79.1731L68.7465 79.0186C68.7703 79.1589 68.796 79.2989 68.8217 79.439C68.8695 79.6995 68.9191 79.9691 68.9556 80.2417L69.1127 81.4829L69.2069 82.7042C69.2264 82.905 69.2309 83.11 69.2352 83.3084L69.2514 83.9525C69.2816 84.7929 69.253 85.6381 69.1661 86.4594C69.0848 87.2486 68.925 88.0596 68.6776 88.9375Z" fill="white"/>
<path d="M59.2514 99.0796L58.9277 98.2085C60.444 97.6451 61.8262 96.859 63.0359 95.872C64.3004 94.8347 65.3527 93.6432 66.163 92.3315L66.9537 92.8197C66.0893 94.2191 64.9691 95.4879 63.6242 96.5911C62.3344 97.6434 60.8635 98.4805 59.2514 99.0796Z" fill="white"/>
<path d="M53.9457 100C53.4652 100 53.0073 99.9779 52.5633 99.9334C51.7247 99.8513 50.8896 99.7022 50.0824 99.4903C48.4691 99.0629 46.928 98.3632 45.501 97.4105L46.017 96.6377C47.3587 97.5336 48.8061 98.1911 50.3193 98.5919C51.0779 98.7911 51.8641 98.9314 52.6547 99.0088C53.387 99.0823 54.1625 99.0908 55.0265 99.0342L55.0867 99.9615C54.6908 99.9872 54.3116 100 53.9457 100Z" fill="white"/>
<path d="M42.3435 94.5686C40.1433 91.9638 38.8761 88.6742 38.7754 85.3062L39.7042 85.2783C39.7986 88.4375 40.988 91.5238 43.0534 93.969L42.3435 94.5686Z" fill="white"/>
<path d="M39.6342 81.1698L38.7051 81.156L38.7148 80.5262L38.8127 78.6722L38.9849 76.8241L39.2322 74.9843L39.4431 73.7775C39.456 73.7059 39.4679 73.6367 39.4799 73.5673C39.503 73.4327 39.5263 73.2979 39.5529 73.164L39.6841 72.5575C39.7156 72.415 39.7457 72.2744 39.7758 72.1337C39.8318 71.8726 39.8877 71.6114 39.9497 71.3516L40.8534 71.5672C40.7931 71.8201 40.7388 72.0741 40.6843 72.3282C40.6538 72.471 40.6233 72.6138 40.5916 72.7562L40.4625 73.3527C40.439 73.4712 40.4172 73.5981 40.3955 73.725C40.383 73.7965 40.3708 73.8682 40.3578 73.9397L40.149 75.1352L39.907 76.9378L39.7387 78.749L39.6432 80.566L39.6342 81.1698Z" fill="white"/>
<path d="M41.9996 67.6416L41.1191 67.3446C42.1371 64.3278 43.5442 61.3158 45.3017 58.3921L46.098 58.8709C44.3751 61.7374 42.9962 64.6883 41.9996 67.6416Z" fill="white"/>
<path d="M48.3756 55.472L47.627 54.9215L48.1813 54.1684L49.1322 52.9676C49.3028 52.7533 49.4805 52.546 49.6524 52.3454C49.7451 52.2373 49.8376 52.1291 49.9291 52.0201L50.3282 51.551C50.4224 51.4432 50.5151 51.3419 50.6078 51.2408L51.5775 50.1805L52.444 49.2931C52.6706 49.0542 52.9136 48.8224 53.1486 48.5981L53.9937 47.7894L54.2328 47.5747L54.8531 48.2664L54.625 48.4709L53.7899 49.2705C53.5528 49.4967 53.3287 49.7103 53.1133 49.9375L52.2524 50.8189L51.2928 51.8686C51.2051 51.9642 51.1174 52.0599 51.0319 52.1578L50.6389 52.6198C50.5474 52.7288 50.4525 52.8395 50.3577 52.9501C50.1914 53.1444 50.0192 53.3452 49.8598 53.5454L48.9151 54.7385L48.3756 55.472Z" fill="white"/>
<path d="M57.9935 45.6209L57.4092 44.8984C57.8597 44.5342 58.3309 44.1909 58.7864 43.8588C58.9868 43.7129 59.187 43.5669 59.3859 43.4192L59.4029 43.4071C59.609 43.2678 59.8137 43.1266 60.0184 42.9851C60.4815 42.6655 60.9603 42.335 61.452 42.0305C62.6837 41.2258 64.0796 40.4112 65.71 39.5464L66.1455 40.3672C64.54 41.2188 63.168 42.0193 61.9507 42.8143C61.4693 43.1127 61.0001 43.4366 60.5462 43.7499C60.3419 43.8909 60.1376 44.032 59.9321 44.171C59.7335 44.3186 59.5336 44.4642 59.3338 44.6098C58.8873 44.9351 58.4258 45.2712 57.9935 45.6209Z" fill="white"/>
<path d="M69.8403 38.5943L69.4658 37.7438L70.0266 37.497L71.7447 36.8037C71.9679 36.7223 72.1763 36.6448 72.3847 36.5673C72.9367 36.3623 73.5074 36.1503 74.0832 35.9663C75.5082 35.4774 77.0604 35.0281 78.8192 34.5962L79.041 35.4985C77.3094 35.9239 75.7832 36.3653 74.3754 36.8483C73.8108 37.0287 73.2504 37.237 72.7083 37.4383C72.4981 37.5165 72.2877 37.5945 72.077 37.6713L70.3885 38.3527L69.8403 38.5943Z" fill="white"/>
<path d="M83.0548 34.6781L82.8984 33.7622L83.5021 33.6592L84.1231 33.5726C84.2666 33.5532 84.4086 33.5333 84.5505 33.5135C84.8145 33.4765 85.0786 33.4397 85.3431 33.4064C85.5737 33.3828 85.7932 33.359 86.0126 33.3351C86.5996 33.2716 87.2066 33.2057 87.8121 33.1696C87.9524 33.1605 88.095 33.1493 88.2375 33.1381C88.501 33.1172 88.7732 33.0957 89.0472 33.0871L90.2667 33.0361C90.5369 33.0228 90.8102 33.0215 91.0746 33.0203C91.2172 33.0195 91.3599 33.0189 91.5025 33.0162L91.7001 33.0142C92.0435 33.0106 92.3983 33.0067 92.7533 33.0201L92.7186 33.9487C92.3862 33.9364 92.0424 33.9401 91.71 33.9434L91.5151 33.9453C91.3726 33.9479 91.2259 33.9487 91.0791 33.9494C90.8131 33.9505 90.5619 33.9518 90.3087 33.9642L89.0813 34.0154C88.8246 34.0237 88.5748 34.0434 88.3105 34.0643C88.1637 34.0758 88.0167 34.0874 87.8697 34.0969C87.2846 34.1318 86.6889 34.1964 86.1127 34.2589C85.8912 34.283 85.6696 34.3069 85.4481 34.3294C85.1988 34.3609 84.939 34.3973 84.6792 34.4336C84.536 34.4535 84.3928 34.4737 84.2496 34.493L83.6444 34.5773L83.0548 34.6781Z" fill="white"/>
<path d="M106.338 36.0254C104.561 35.504 103.064 35.1369 101.626 34.87C101.063 34.7499 100.491 34.6599 99.9372 34.5728C99.7009 34.5356 99.4649 34.4984 99.229 34.4591L97.4166 34.2315L96.8213 34.1777L96.9053 33.2524L97.5154 33.3078L99.3731 33.5411C99.609 33.5806 99.8454 33.6176 100.082 33.6548C100.647 33.7439 101.232 33.836 101.808 33.9589C103.245 34.2254 104.816 34.6106 106.599 35.1337L106.338 36.0254Z" fill="white"/>
</svg>
