<svg width="49" height="48" viewBox="0 0 49 48" fill="none" xmlns="http://www.w3.org/2000/svg">
<path d="M19.6736 8C15.183 8.10232 12.5601 8.52979 10.768 10.3157C9.19955 11.8787 8.67526 14.0759 8.5 17.6M29.3264 8C33.817 8.10232 36.4398 8.52979 38.232 10.3157C39.8005 11.8787 40.3248 14.0759 40.4999 17.6M29.3264 40C33.817 39.8976 36.4398 39.4701 38.232 37.6844C39.8005 36.1213 40.3248 33.924 40.4999 30.4M19.6736 40C15.183 39.8976 12.5601 39.4701 10.768 37.6844C9.19955 36.1213 8.67526 33.924 8.5 30.4" stroke="white" stroke-width="2.10526" stroke-linecap="round" stroke-linejoin="round"/>
<path d="M23.6583 15.5789H25.3425M23.6583 24H25.3425M23.6583 32.4211H25.3425M12.7109 24H14.3951M34.6057 24H36.2899" stroke="white" stroke-width="2.10526" stroke-linecap="round"/>
</svg>
