<svg width="42" height="42" viewBox="0 0 42 42" fill="none" xmlns="http://www.w3.org/2000/svg">
<path opacity="0.35" d="M13.7812 32.8091L13.7813 10.9341C13.7813 9.36352 15.0544 8.09033 16.625 8.09033H24.5C26.0706 8.09033 27.3437 9.36352 27.3438 10.9341V32.8091C27.3437 34.3796 26.0706 35.6528 24.5 35.6528H16.625C15.0544 35.6528 13.7813 34.3796 13.7812 32.8091Z" stroke="white" stroke-width="1.3125"/>
<path opacity="0.4" d="M17.9375 6.12158H23.1875C22.7429 5.06537 21.7085 4.37853 20.5625 4.37853C19.4165 4.37853 18.3821 5.06537 17.9375 6.12158" fill="white"/>
<path d="M17.5 33.6841C16.5335 33.6841 15.75 32.9006 15.75 31.9341V27.8041C15.75 26.8376 16.5335 26.0541 17.5 26.0541H23.625C24.5915 26.0541 25.375 26.8376 25.375 27.8041V31.9341C25.375 32.9006 24.5915 33.6841 23.625 33.6841H17.5Z" fill="#F04438"/>
</svg>
