<svg width="17" height="36" viewBox="0 0 17 36" fill="none" xmlns="http://www.w3.org/2000/svg">
<path d="M1.86797 8C1.86797 4.24446 4.91243 1.2 8.66797 1.2C12.4235 1.2 15.468 4.24446 15.468 8V9.44272C15.468 9.62291 15.426 9.80062 15.3454 9.96179L14.5947 11.4633C13.8537 12.9452 13.468 14.5793 13.468 16.2361V18V22V30C13.468 32.651 11.3189 34.8 8.66797 34.8C6.017 34.8 3.86797 32.651 3.86797 30V22V18V16.2361C3.86797 14.5793 3.48222 12.9452 2.74128 11.4633L1.9905 9.96179C1.90992 9.80062 1.86797 9.62291 1.86797 9.44272V8Z" stroke="#CE4C68" stroke-width="2.4"/>
</svg>
