<svg width="32" height="41" viewBox="0 0 32 41" fill="none" xmlns="http://www.w3.org/2000/svg">
<path d="M2.18893 20.5004C1.79915 19.1907 1.58984 17.8033 1.58984 16.3671C1.58984 8.37734 8.06679 1.90039 16.0565 1.90039C24.0462 1.90039 30.5232 8.37734 30.5232 16.3671C30.5232 17.8033 30.3139 19.1907 29.9241 20.5004M12.2945 39.1004H22.2565C25.6807 39.1004 28.4565 36.3246 28.4565 32.9004V26.6436C28.4565 25.2889 27.5242 24.108 26.1953 23.7794L16.5158 21.3861V13.1194C16.5158 11.4889 15.1792 10.1671 13.5306 10.1671C11.8819 10.1671 10.5454 11.4889 10.5454 13.1194C10.5454 13.1194 10.5454 24.583 10.5454 29.0208C7.03085 25.5449 6.68561 25.2035 6.68561 25.2035C5.5196 24.0502 3.6305 24.0503 2.46441 25.2035C1.29832 26.3567 1.29832 28.225 2.46441 29.3783L12.2945 39.1004Z" stroke="#CE4C68" stroke-width="2.4" stroke-linecap="round"/>
</svg>
