<svg width="49" height="48" viewBox="0 0 49 48" fill="none" xmlns="http://www.w3.org/2000/svg">
<path d="M37.9802 37.9848C40.5075 37.1301 42.6649 35.3273 43.8532 32.7791C45.0415 30.2307 45.0357 27.4193 44.0659 24.9339M39.5743 26.8116C40.0592 28.0543 40.0622 29.46 39.468 30.7342C38.8738 32.0084 37.795 32.9097 36.5314 33.337" stroke="white" stroke-width="2.4" stroke-linecap="round" stroke-linejoin="round"/>
<path d="M33.9328 10.5126L29.5825 8.48406C26.1646 6.89027 24.4556 6.09338 22.8987 6.66005C21.3418 7.22674 20.5449 8.93568 18.9511 12.3536L12.1892 26.8545C10.5954 30.2724 9.79853 31.9813 10.3652 33.5383C10.9319 35.0952 12.6408 35.8921 16.0587 37.4859L20.409 39.5145C23.8269 41.1083 25.5358 41.9051 27.0928 41.3386C28.6497 40.7718 29.4466 39.0628 31.0404 35.645L37.8023 21.144C39.3961 17.7261 40.193 16.0172 39.6263 14.4603C39.0596 12.9033 37.3506 12.1064 33.9328 10.5126Z" stroke="white" stroke-width="2.4" stroke-linecap="round" stroke-linejoin="round"/>
<path d="M34.6578 10.8508L28.8574 8.146L28.9063 9.93418L33.2566 11.9628L34.6578 10.8508Z" stroke="white" stroke-width="2.4" stroke-linecap="round" stroke-linejoin="round"/>
<path d="M11.6799 10.7288C9.15265 11.5835 6.99521 13.3863 5.80694 15.9345C4.61861 18.4829 4.62444 21.2943 5.59423 23.7797M10.0859 21.902C9.60097 20.6593 9.598 19.2536 10.1922 17.9794C10.7863 16.7052 11.8651 15.8039 13.1287 15.3766" stroke="white" stroke-width="2.4" stroke-linecap="round" stroke-linejoin="round"/>
</svg>
