<svg width="34" height="34" viewBox="0 0 34 34" fill="none" xmlns="http://www.w3.org/2000/svg">
<path d="M1.52725 15.4717C1.1222 15.4717 0.733735 15.6326 0.44732 15.919C0.160906 16.2054 0 16.5939 0 16.9989C0 17.404 0.160906 17.7924 0.44732 18.0788C0.733735 18.3652 1.1222 18.5261 1.52725 18.5261C5.17147 18.5302 8.66527 19.9796 11.2421 22.5565C13.819 25.1333 15.2684 28.6271 15.2725 32.2712C15.2725 32.6763 15.4334 33.0648 15.7198 33.3512C16.0062 33.6376 16.3947 33.7985 16.7997 33.7985C17.2048 33.7985 17.5932 33.6376 17.8797 33.3512C18.1661 33.0648 18.327 32.6763 18.327 32.2712C18.3217 27.8173 16.5501 23.5474 13.4006 20.398C10.2512 17.2486 5.9812 15.4769 1.52725 15.4717Z" fill="#CE4C68"/>
<path d="M1.52725 23.1094C1.1222 23.1094 0.733735 23.2703 0.44732 23.5567C0.160906 23.8431 0 24.2316 0 24.6366C0 25.0417 0.160906 25.4301 0.44732 25.7165C0.733735 26.0029 1.1222 26.1638 1.52725 26.1638C3.14745 26.1638 4.7013 26.8075 5.84696 27.9531C6.99261 29.0988 7.63624 30.6526 7.63624 32.2728C7.63624 32.6778 7.79714 33.0663 8.08356 33.3527C8.36997 33.6391 8.75843 33.8 9.16349 33.8C9.56854 33.8 9.957 33.6391 10.2434 33.3527C10.5298 33.0663 10.6907 32.6778 10.6907 32.2728C10.6883 29.8432 9.72209 27.5139 8.00413 25.796C6.28617 24.078 3.95681 23.1118 1.52725 23.1094Z" fill="#CE4C68"/>
<path d="M1.52725 33.7996C2.37072 33.7996 3.0545 33.1158 3.0545 32.2724C3.0545 31.4289 2.37072 30.7451 1.52725 30.7451C0.683772 30.7451 0 31.4289 0 32.2724C0 33.1158 0.683772 33.7996 1.52725 33.7996Z" fill="#CE4C68"/>
<path d="M1.52725 7.83691C1.1222 7.83691 0.733735 7.99782 0.44732 8.28423C0.160906 8.57064 0 8.9591 0 9.36415C0 9.76919 0.160906 10.1577 0.44732 10.4441C0.733735 10.7305 1.1222 10.8914 1.52725 10.8914C7.1961 10.8974 12.631 13.1521 16.6395 17.1605C20.648 21.169 22.9026 26.6038 22.9087 32.2726C22.9087 32.6777 23.0696 33.0662 23.356 33.3526C23.6424 33.639 24.0309 33.7999 24.436 33.7999C24.841 33.7999 25.2295 33.639 25.5159 33.3526C25.8023 33.0662 25.9632 32.6777 25.9632 32.2726C25.9555 25.7942 23.3786 19.5834 18.7976 15.0025C14.2166 10.4215 8.00571 7.84459 1.52725 7.83691Z" fill="#CE4C68"/>
<path d="M1.52725 0.200195C1.1222 0.200195 0.733735 0.3611 0.44732 0.647511C0.160906 0.933923 0 1.32238 0 1.72743C0 2.13248 0.160906 2.52093 0.44732 2.80735C0.733735 3.09376 1.1222 3.25466 1.52725 3.25466C9.22062 3.26315 16.5965 6.32306 22.0365 11.763C27.4765 17.203 30.5365 24.5788 30.545 32.2721C30.545 32.6771 30.7059 33.0656 30.9923 33.352C31.2787 33.6384 31.6671 33.7993 32.0722 33.7993C32.4772 33.7993 32.8657 33.6384 33.1521 33.352C33.4385 33.0656 33.5994 32.6771 33.5994 32.2721C33.5897 23.7691 30.2076 15.6171 24.195 9.60455C18.1824 3.59201 10.0303 0.209896 1.52725 0.200195Z" fill="#CE4C68"/>
</svg>
