<svg width="41" height="36" viewBox="0 0 41 36" fill="none" xmlns="http://www.w3.org/2000/svg">
<path d="M1.89844 1.28711H7.65324L10.0359 8.25601M10.0359 8.25601L13.7873 23.3553M10.0359 8.25601H39.0984L34.5315 23.3553H13.7873M13.7873 23.3553C12.3994 23.3553 11.2742 24.51 11.2742 25.9345C11.2742 27.3589 12.3993 28.5137 13.7873 28.5137H33.6333M36.0232 30.1658C36.5696 31.5197 35.9432 33.0717 34.6241 33.6325C33.305 34.1933 31.7927 33.5504 31.2463 32.1966C30.6999 30.8428 31.3263 29.2907 32.6454 28.7299C33.9645 28.1692 35.4768 28.812 36.0232 30.1658ZM14.3084 28.6013C15.6979 28.938 16.5583 30.3671 16.2302 31.7931C15.9021 33.2192 14.5097 34.1022 13.1203 33.7655C11.7308 33.4288 10.8703 31.9998 11.1984 30.5737C11.5265 29.1476 12.9189 28.2646 14.3084 28.6013Z" stroke="#CE4C68" stroke-width="2.4" stroke-miterlimit="10" stroke-linecap="round" stroke-linejoin="round"/>
</svg>
