<svg width="81" height="80" viewBox="0 0 81 80" fill="none" xmlns="http://www.w3.org/2000/svg">
<path d="M72.3137 36.8165C73.327 38.2375 73.8337 38.9482 73.8337 39.9998C73.8337 41.0515 73.327 41.7622 72.3137 43.1832C67.76 49.5685 56.131 63.3332 40.5003 63.3332C24.8696 63.3332 13.2407 49.5685 8.68713 43.1832C7.67369 41.7622 7.16699 41.0515 7.16699 39.9998C7.16699 38.9482 7.67369 38.2375 8.68713 36.8165C13.2407 30.4313 24.8696 16.6665 40.5003 16.6665C56.131 16.6665 67.76 30.4313 72.3137 36.8165Z" stroke="white" stroke-width="4"/>
<path d="M50.5 40C50.5 34.477 46.023 30 40.5 30C34.977 30 30.5 34.477 30.5 40C30.5 45.523 34.977 50 40.5 50C46.023 50 50.5 45.523 50.5 40Z" stroke="white" stroke-width="4"/>
</svg>
