<svg width="37" height="32" viewBox="0 0 37 32" fill="none" xmlns="http://www.w3.org/2000/svg">
<path d="M35.2008 22.3552H33.8713C32.2005 22.3552 30.8462 20.9516 30.8462 19.2201V16.1432C30.8462 14.4438 29.5169 13.0663 27.8771 13.0663C26.2373 13.0663 24.908 14.4438 24.908 16.1432V27.3227C24.908 29.0221 23.5788 30.3996 21.9389 30.3996C20.2991 30.3996 18.9699 29.0221 18.9699 27.3227V4.67653C18.9699 2.97715 17.6406 1.59961 16.0008 1.59961C14.361 1.59961 13.0317 2.97715 13.0317 4.67653V22.5227C13.0317 24.2221 11.7025 25.5996 10.0626 25.5996C8.42282 25.5996 7.09357 24.2221 7.09357 22.5227V16.1432C7.09357 14.4438 5.76431 13.0663 4.12449 13.0663C2.48468 13.0663 1.15542 14.4438 1.15542 16.1432V19.2201C1.15542 20.9516 -0.198971 22.3552 -1.86977 22.3552H-3.19922" stroke="#CE4C68" stroke-width="2.4" stroke-miterlimit="10" stroke-linecap="round"/>
</svg>
