<svg width="49" height="49" viewBox="0 0 49 49" fill="none" xmlns="http://www.w3.org/2000/svg">
<g clip-path="url(#clip0_1400_3122)">
<path d="M47.675 28.6512C44.0414 26.7514 40.7907 24.2624 38.0134 21.2531C35.9451 19.0124 33.01 17.7271 29.9607 17.7271C27.9161 17.7271 25.9425 18.2878 24.2142 19.3543C22.4857 18.2878 20.5122 17.7271 18.4676 17.7271C15.4182 17.7271 12.4831 19.0123 10.4149 21.2531C7.63753 24.2624 4.38687 26.7514 0.75324 28.6512C0.30165 28.8874 0.12137 29.4412 0.347493 29.898C2.51685 34.2795 5.84982 37.9812 9.98623 40.6027C14.2377 43.2973 19.1575 44.7215 24.2142 44.7215C29.2708 44.7215 34.1907 43.2973 38.4421 40.6027C42.5785 37.9811 45.9115 34.2795 48.0808 29.898C48.3069 29.4412 48.1266 28.8874 47.675 28.6512ZM37.4385 39.019C33.4877 41.523 28.9149 42.8464 24.2142 42.8464C19.5135 42.8464 14.9407 41.523 10.9899 39.019C7.39931 36.7434 4.45999 33.5928 2.44429 29.8699C5.93851 27.9317 9.07996 25.4639 11.7928 22.5247C13.5071 20.6673 15.94 19.6019 18.4676 19.6019C20.3407 19.6019 22.142 20.1698 23.6765 21.244C23.9993 21.4699 24.429 21.4699 24.7518 21.244C26.2862 20.1698 28.0874 19.6019 29.9607 19.6019C32.4884 19.6019 34.9213 20.6672 36.6356 22.5248C39.3483 25.464 42.4897 27.9317 45.984 29.8699C43.9683 33.5928 41.029 36.7434 37.4385 39.019Z" fill="white"/>
<path d="M29.2112 26.2314C27.4954 26.2314 25.7775 26.6035 24.2138 27.3106C22.6502 26.6035 20.9322 26.2314 19.2164 26.2314C16.5004 26.2314 13.8317 27.1595 11.7016 28.8445L10.3983 29.8757H8.12402C7.60633 29.8757 7.18652 30.2955 7.18652 30.8132C7.18652 31.3308 7.60633 31.7507 8.12402 31.7507H10.5168C14.8217 33.7584 19.4288 34.7769 24.2138 34.7769C28.999 34.7769 33.6059 33.7583 37.9108 31.7507H40.3035C40.8212 31.7507 41.241 31.3308 41.241 30.8132C41.241 30.2955 40.8212 29.8757 40.3035 29.8757H38.0293L36.7259 28.8445C34.5959 27.1595 31.9271 26.2314 29.2112 26.2314Z" fill="white"/>
<path d="M37.5832 13.2618C36.2336 12.4825 34.6612 12.2754 33.156 12.6789C32.6559 12.813 32.3591 13.3269 32.4931 13.8271C32.6272 14.3272 33.1413 14.6242 33.6413 14.49C35.7507 13.9252 37.9253 15.181 38.4904 17.2896C38.6026 17.7084 38.9814 17.9847 39.3954 17.9847C39.4756 17.9847 39.5574 17.9743 39.6386 17.9525C40.1387 17.8184 40.4355 17.3045 40.3015 16.8043C39.8982 15.2992 38.9327 14.041 37.5832 13.2618Z" fill="white"/>
<path d="M43.3554 16.9238C43.4357 16.9238 43.5174 16.9134 43.5986 16.8915C44.0988 16.7575 44.3956 16.2434 44.2615 15.7434C43.5748 13.1804 41.9311 11.0383 39.6332 9.71155C37.3354 8.3849 34.6583 8.0325 32.0955 8.71921C31.5953 8.85327 31.2985 9.3673 31.4326 9.86736C31.5667 10.3674 32.0808 10.6643 32.5807 10.5303C34.6598 9.9732 36.8316 10.2589 38.6958 11.3353C40.56 12.4116 41.8934 14.1494 42.4506 16.2285C42.5627 16.6474 42.9414 16.9238 43.3554 16.9238Z" fill="white"/>
<path d="M31.5203 6.57388C34.6561 5.73361 37.9318 6.16485 40.7435 7.78812C43.5553 9.41139 45.5665 12.0325 46.4067 15.1685C46.5189 15.5874 46.8977 15.8637 47.3117 15.8637C47.3919 15.8636 47.4737 15.8533 47.5549 15.8314C48.055 15.6974 48.3518 15.1833 48.2178 14.6833C47.2478 11.0635 44.9264 8.03806 41.6809 6.16439C38.4357 4.29081 34.6549 3.793 31.0349 4.76283C30.5348 4.8969 30.238 5.41092 30.372 5.91098C30.5061 6.41104 31.0203 6.70785 31.5203 6.57388Z" fill="white"/>
</g>
<defs>
<clipPath id="clip0_1400_3122">
<rect width="48" height="48" fill="white" transform="translate(0.25 0.5)"/>
</clipPath>
</defs>
</svg>
