<svg width="33" height="41" viewBox="0 0 33 41" fill="none" xmlns="http://www.w3.org/2000/svg">
<path d="M30.8536 6.55273L1.55859 35.8477M18.2222 11.6124C18.2222 12.7454 17.3037 13.6639 16.1707 13.6639C15.0377 13.6639 14.1192 12.7454 14.1192 11.6124C14.1192 10.4794 15.0377 9.56094 16.1707 9.56094C17.3037 9.56094 18.2222 10.4794 18.2222 11.6124ZM15.9614 39.1004C9.5411 39.1004 4.3364 33.8957 4.3364 27.4754V13.5254C4.3364 7.10508 9.5411 1.90039 15.9614 1.90039C22.3817 1.90039 27.5864 7.10508 27.5864 13.5254V27.4754C27.5864 33.8957 22.3817 39.1004 15.9614 39.1004Z" stroke="#CE4C68" stroke-width="2.4" stroke-linecap="round" stroke-linejoin="round"/>
</svg>
