<svg width="36" height="36" viewBox="0 0 36 36" fill="none" xmlns="http://www.w3.org/2000/svg">
<path d="M31.3043 15.287C33.2349 15.287 34.8 16.852 34.8 18.7826V31.3043C34.8 33.2349 33.2349 34.8 31.3043 34.8H29.7391C27.8085 34.8 26.2435 33.2349 26.2435 31.3043V18.7826C26.2435 16.852 27.8085 15.287 29.7391 15.287H31.3043ZM18.7826 1.2C20.7132 1.2 22.2783 2.76506 22.2783 4.69565V31.3043C22.2783 33.2349 20.7132 34.8 18.7826 34.8H17.2174C15.2868 34.8 13.7217 33.2349 13.7217 31.3043V4.69565C13.7217 2.76506 15.2868 1.2 17.2174 1.2H18.7826ZM6.26087 9.02609C8.19146 9.02609 9.75652 10.5911 9.75652 12.5217V31.3043C9.75652 33.2349 8.19146 34.8 6.26087 34.8H4.69565C2.76506 34.8 1.2 33.2349 1.2 31.3043V12.5217C1.2 10.5911 2.76506 9.02609 4.69565 9.02609H6.26087Z" stroke="#CE4C68" stroke-width="2.4"/>
</svg>
