<svg width="24" height="25" viewBox="0 0 24 25" fill="none" xmlns="http://www.w3.org/2000/svg">
<path d="M8.94581 21.0727L8.06088 11.2741C8.02411 10.8669 8.23884 10.4784 8.60314 10.2929L9.16797 10.0054C9.50319 9.83474 9.71429 9.4904 9.71429 9.11423V8.85455V8.31258C9.71429 7.97068 9.53961 7.65248 9.25116 7.46892L8.61527 7.06426C8.24866 6.83096 8.07467 6.38761 8.18477 5.96724L8.7827 3.68424C9.01066 2.81386 9.61723 2.09174 10.4352 1.71697L10.7504 1.57255C11.5438 1.20902 12.4562 1.20902 13.2496 1.57255L13.5648 1.71697C14.3828 2.09174 14.9893 2.81386 15.2173 3.68424L15.8152 5.96724C15.9253 6.38761 15.7513 6.83096 15.3847 7.06426L14.7488 7.46892C14.4604 7.65248 14.2857 7.97068 14.2857 8.31258V8.85455V9.11423C14.2857 9.4904 14.4968 9.83474 14.832 10.0054L15.3969 10.2929C15.7612 10.4784 15.9759 10.8669 15.9391 11.2741L15.0542 21.0727M8.94581 21.0727L9.00709 21.7512C9.0925 22.697 9.62291 23.5478 10.4332 24.0429V24.0429C11.3934 24.6294 12.6066 24.6294 13.5668 24.0429V24.0429C14.3771 23.5478 14.9075 22.697 14.9929 21.7512L15.0542 21.0727M8.94581 21.0727H15.0542" stroke="white"/>
</svg>
