<svg width="24" height="24" viewBox="0 0 24 24" fill="none" xmlns="http://www.w3.org/2000/svg">
<path d="M16.1095 4.70997C15.4164 4.08584 14.6 3.61433 13.713 3.32601C12.8261 3.03769 11.8884 2.93901 10.9609 3.03635C10.0333 3.1337 9.13658 3.4249 8.3288 3.89108C7.52103 4.35725 6.82025 4.98799 6.2719 5.7424C5.72355 6.49682 5.33988 7.35805 5.14576 8.27027C4.95164 9.18249 4.95141 10.1253 5.14508 11.0376C5.33876 11.9499 5.72201 12.8114 6.26999 13.566C6.81797 14.3207 7.51845 14.9518 8.32599 15.4184C8.38376 15.4475 8.43234 15.492 8.46635 15.547C8.50035 15.6021 8.51846 15.6654 8.51865 15.7301V16.3256C8.51987 16.566 8.57058 16.8036 8.6676 17.0236C8.76463 17.2436 8.9059 17.4412 9.08262 17.6042C8.94485 17.8569 8.87146 18.1396 8.86895 18.4274V19.128C8.86895 19.5925 9.05347 20.038 9.38194 20.3664C9.7104 20.6949 10.1559 20.8794 10.6204 20.8794H10.9707C10.9707 21.0652 11.0445 21.2434 11.1759 21.3748C11.3073 21.5062 11.4855 21.58 11.6713 21.58C11.8571 21.58 12.0353 21.5062 12.1667 21.3748C12.298 21.2434 12.3719 21.0652 12.3719 20.8794H12.7221C13.1867 20.8794 13.6322 20.6949 13.9606 20.3664C14.2891 20.038 14.4736 19.5925 14.4736 19.128V18.4274C14.4711 18.1396 14.3977 17.8569 14.2599 17.6042C14.4367 17.4412 14.5779 17.2436 14.675 17.0236C14.772 16.8036 14.8227 16.566 14.8239 16.3256V15.7301C14.8244 15.6664 14.8423 15.604 14.8756 15.5497C14.9089 15.4954 14.9565 15.4512 15.0131 15.4219C15.921 14.8942 16.6912 14.1592 17.2608 13.2768C17.8303 12.3945 18.1829 11.3899 18.2898 10.3452C18.3968 9.30049 18.2549 8.24531 17.876 7.26589C17.4971 6.28648 16.8917 5.41064 16.1095 4.70997ZM13.0724 19.128C13.0724 19.2209 13.0355 19.31 12.9698 19.3757C12.9042 19.4413 12.8151 19.4783 12.7221 19.4783H10.6204C10.5275 19.4783 10.4384 19.4413 10.3727 19.3757C10.307 19.31 10.2701 19.2209 10.2701 19.128V18.4274C10.2701 18.3345 10.307 18.2454 10.3727 18.1797C10.4384 18.114 10.5275 18.0771 10.6204 18.0771H12.7221C12.8151 18.0771 12.9042 18.114 12.9698 18.1797C13.0355 18.2454 13.0724 18.3345 13.0724 18.4274V19.128ZM14.309 14.2239C14.0437 14.377 13.8226 14.5962 13.6673 14.8602C13.512 15.1242 13.4277 15.4239 13.4227 15.7301V16.3256C13.4227 16.4185 13.3858 16.5076 13.3201 16.5733C13.2544 16.639 13.1653 16.6759 13.0724 16.6759H10.2701C10.1772 16.6759 10.0881 16.639 10.0224 16.5733C9.95672 16.5076 9.91982 16.4185 9.91982 16.3256V15.7301C9.91483 15.4239 9.83056 15.1242 9.67525 14.8602C9.51993 14.5962 9.29885 14.377 9.03358 14.2239C8.02941 13.6459 7.24446 12.7521 6.80086 11.6818C6.35725 10.6114 6.27989 9.4244 6.58079 8.3055C6.8817 7.1866 7.54399 6.19854 8.46464 5.49505C9.38528 4.79156 10.5126 4.41211 11.6713 4.41572C12.8293 4.41366 13.9556 4.79423 14.8751 5.49827C15.7945 6.20231 16.4556 7.19039 16.7556 8.3089C17.0556 9.42741 16.9777 10.6137 16.534 11.6834C16.0903 12.753 15.3056 13.6461 14.302 14.2239H14.309Z" fill="#808080"/>
</svg>
