<svg width="24" height="24" viewBox="0 0 24 24" fill="none" xmlns="http://www.w3.org/2000/svg">
<path d="M11.3356 3.59055L3.67127 10.4033C3.2443 10.7828 3 11.3269 3 11.8981V19C3 20.1046 3.89543 21 5 21H8.5C9.05228 21 9.5 20.5523 9.5 20V17C9.5 16.4477 9.94772 16 10.5 16H12H13.5C14.0523 16 14.5 16.4477 14.5 17V20C14.5 20.5523 14.9477 21 15.5 21H19C20.1046 21 21 20.1046 21 19V11.8981C21 11.3269 20.7557 10.7828 20.3287 10.4033L12.6644 3.59055C12.2855 3.25376 11.7145 3.25376 11.3356 3.59055Z" stroke="white"/>
</svg>
