<svg width="24" height="24" viewBox="0 0 24 24" fill="none" xmlns="http://www.w3.org/2000/svg">
<path d="M16.6682 6.44504C15.9881 5.83257 15.1869 5.36986 14.3165 5.08693C13.4461 4.804 12.526 4.70716 11.6157 4.80268C10.7055 4.89821 9.82553 5.18397 9.03284 5.64144C8.24015 6.09891 7.55245 6.71787 7.01435 7.45819C6.47624 8.19852 6.09973 9.04367 5.90924 9.93885C5.71875 10.834 5.71852 11.7592 5.90858 12.6545C6.09863 13.5498 6.47473 14.3951 7.01247 15.1357C7.55022 15.8763 8.23761 16.4956 9.03008 16.9535C9.08677 16.982 9.13444 17.0257 9.16781 17.0797C9.20118 17.1337 9.21895 17.1959 9.21914 17.2594V17.8438C9.22034 18.0797 9.27009 18.3128 9.36531 18.5287C9.46052 18.7445 9.59915 18.9385 9.77258 19.0984C9.63737 19.3464 9.56536 19.6238 9.56289 19.9063V20.5938C9.56289 21.0496 9.74397 21.4868 10.0663 21.8091C10.3886 22.1314 10.8258 22.3125 11.2816 22.3125H11.6254C11.6254 22.4948 11.6978 22.6697 11.8267 22.7986C11.9557 22.9276 12.1305 23 12.3129 23C12.4952 23 12.6701 22.9276 12.799 22.7986C12.9279 22.6697 13.0004 22.4948 13.0004 22.3125H13.3441C13.8 22.3125 14.2371 22.1314 14.5595 21.8091C14.8818 21.4868 15.0629 21.0496 15.0629 20.5938V19.9063C15.0604 19.6238 14.9884 19.3464 14.8532 19.0984C15.0266 18.9385 15.1652 18.7445 15.2605 18.5287C15.3557 18.3128 15.4054 18.0797 15.4066 17.8438V17.2594C15.4071 17.1968 15.4247 17.1356 15.4574 17.0823C15.4901 17.029 15.5367 16.9857 15.5923 16.9569C16.4833 16.4391 17.2391 15.7178 17.798 14.8519C18.3568 13.986 18.7029 13.0002 18.8078 11.975C18.9128 10.9498 18.7736 9.91435 18.4017 8.95323C18.0299 7.99211 17.4358 7.13263 16.6682 6.44504ZM13.6879 20.5938C13.6879 20.6849 13.6517 20.7724 13.5872 20.8368C13.5227 20.9013 13.4353 20.9375 13.3441 20.9375H11.2816C11.1905 20.9375 11.103 20.9013 11.0386 20.8368C10.9741 20.7724 10.9379 20.6849 10.9379 20.5938V19.9063C10.9379 19.8151 10.9741 19.7277 11.0386 19.6632C11.103 19.5987 11.1905 19.5625 11.2816 19.5625H13.3441C13.4353 19.5625 13.5227 19.5987 13.5872 19.6632C13.6517 19.7277 13.6879 19.8151 13.6879 19.9063V20.5938ZM14.9013 15.7813C14.641 15.9315 14.4241 16.1466 14.2716 16.4057C14.1192 16.6647 14.0365 16.9589 14.0316 17.2594V17.8438C14.0316 17.9349 13.9954 18.0224 13.9309 18.0868C13.8665 18.1513 13.779 18.1875 13.6879 18.1875H10.9379C10.8467 18.1875 10.7593 18.1513 10.6948 18.0868C10.6304 18.0224 10.5941 17.9349 10.5941 17.8438V17.2594C10.5892 16.9589 10.5065 16.6647 10.3541 16.4057C10.2017 16.1466 9.98477 15.9315 9.72445 15.7813C8.73903 15.214 7.96874 14.337 7.53342 13.2866C7.09811 12.2362 7.02219 11.0714 7.31747 9.97342C7.61275 8.87542 8.26268 7.90581 9.16613 7.21546C10.0696 6.52511 11.1759 6.15274 12.3129 6.15629C13.4493 6.15427 14.5546 6.52773 15.4568 7.21862C16.3591 7.90951 17.0079 8.87913 17.3023 9.97676C17.5967 11.0744 17.5202 12.2385 17.0848 13.2882C16.6494 14.3379 15.8793 15.2143 14.8944 15.7813H14.9013Z" fill="white"/>
<path d="M12.3125 3.40624C12.4948 3.40624 12.6697 3.33381 12.7986 3.20488C12.9275 3.07595 13 2.90108 13 2.71875V1.6875C13 1.50516 12.9275 1.33029 12.7986 1.20136C12.6697 1.07243 12.4948 1 12.3125 1C12.1301 1 11.9553 1.07243 11.8263 1.20136C11.6974 1.33029 11.625 1.50516 11.625 1.6875V2.71875C11.625 2.90108 11.6974 3.07595 11.8263 3.20488C11.9553 3.33381 12.1301 3.40624 12.3125 3.40624Z" fill="white"/>
<path d="M18.6316 4.02156L17.9028 4.75031C17.807 4.84665 17.742 4.96921 17.7158 5.10251C17.6896 5.23581 17.7035 5.37388 17.7557 5.49929C17.8079 5.62469 17.8962 5.73182 18.0092 5.80714C18.1223 5.88246 18.2551 5.9226 18.3909 5.92249C18.5725 5.92264 18.7467 5.85097 18.8756 5.72312L19.6044 4.99437C19.6682 4.9305 19.7189 4.85467 19.7535 4.77121C19.7881 4.68775 19.8058 4.5983 19.8058 4.50797C19.8058 4.41763 19.7881 4.32818 19.7535 4.24473C19.7189 4.16127 19.6682 4.08544 19.6044 4.02156C19.5405 3.95769 19.4647 3.90702 19.3812 3.87245C19.2977 3.83788 19.2083 3.82009 19.118 3.82009C19.0276 3.82009 18.9382 3.83788 18.8547 3.87245C18.7713 3.90702 18.6954 3.95769 18.6316 4.02156Z" fill="white"/>
<path d="M21.9375 10.625H20.9062C20.7239 10.625 20.549 10.6974 20.4201 10.8263C20.2911 10.9553 20.2187 11.1301 20.2187 11.3125C20.2187 11.4948 20.2911 11.6697 20.4201 11.7986C20.549 11.9275 20.7239 12 20.9062 12H21.9375C22.1198 12 22.2947 11.9275 22.4236 11.7986C22.5525 11.6697 22.625 11.4948 22.625 11.3125C22.625 11.1301 22.5525 10.9553 22.4236 10.8263C22.2947 10.6974 22.1198 10.625 21.9375 10.625Z" fill="white"/>
<path d="M18.875 16.9018C18.746 16.7728 18.5711 16.7003 18.3886 16.7003C18.2062 16.7003 18.0312 16.7728 17.9022 16.9018C17.7732 17.0308 17.7007 17.2058 17.7007 17.3882C17.7007 17.5707 17.7732 17.7456 17.9022 17.8746L18.631 18.6034C18.6949 18.6677 18.771 18.7188 18.8548 18.7536C18.9385 18.7884 19.0284 18.8063 19.1191 18.8062C19.2554 18.8063 19.3886 18.7659 19.5018 18.6902C19.6151 18.6144 19.7033 18.5067 19.7552 18.3807C19.8072 18.2548 19.8205 18.1162 19.7935 17.9826C19.7666 17.8491 19.7005 17.7265 19.6038 17.6306L18.875 16.9018Z" fill="white"/>
<path d="M5.75112 16.9018L5.02237 17.6306C4.89336 17.7596 4.82089 17.9345 4.82089 18.117C4.82089 18.2994 4.89336 18.4744 5.02237 18.6034C5.15137 18.7324 5.32634 18.8048 5.50877 18.8048C5.69121 18.8048 5.86617 18.7324 5.99518 18.6034L6.72393 17.8746C6.7878 17.8108 6.83847 17.7349 6.87304 17.6515C6.90761 17.568 6.9254 17.4786 6.9254 17.3882C6.9254 17.2979 6.90761 17.2084 6.87304 17.125C6.83847 17.0415 6.7878 16.9657 6.72393 16.9018C6.66005 16.8379 6.58422 16.7873 6.50076 16.7527C6.4173 16.7181 6.32785 16.7003 6.23752 16.7003C6.14719 16.7003 6.05774 16.7181 5.97428 16.7527C5.89082 16.7873 5.81499 16.8379 5.75112 16.9018Z" fill="white"/>
<path d="M3.71875 10.625H2.6875C2.50516 10.625 2.33029 10.6974 2.20136 10.8263C2.07243 10.9553 2 11.1301 2 11.3125C2 11.4948 2.07243 11.6697 2.20136 11.7986C2.33029 11.9275 2.50516 12 2.6875 12H3.71875C3.90108 12 4.07595 11.9275 4.20488 11.7986C4.33381 11.6697 4.40624 11.4948 4.40624 11.3125C4.40624 11.1301 4.33381 10.9553 4.20488 10.8263C4.07595 10.6974 3.90108 10.625 3.71875 10.625Z" fill="white"/>
<path d="M5.75112 5.72312C5.88002 5.85097 6.05425 5.92264 6.2358 5.92249C6.37165 5.9226 6.50448 5.88246 6.61754 5.80714C6.73059 5.73182 6.81879 5.62469 6.87102 5.49929C6.92324 5.37388 6.93714 5.23581 6.91096 5.10251C6.88478 4.96921 6.8197 4.84665 6.72393 4.75031L5.99518 4.02156C5.9313 3.95769 5.85547 3.90702 5.77201 3.87245C5.68856 3.83788 5.59911 3.82009 5.50877 3.82009C5.41844 3.82009 5.32899 3.83788 5.24553 3.87245C5.16207 3.90702 5.08624 3.95769 5.02237 4.02156C4.95849 4.08544 4.90782 4.16127 4.87325 4.24473C4.83868 4.32818 4.82089 4.41763 4.82089 4.50797C4.82089 4.5983 4.83868 4.68775 4.87325 4.77121C4.90782 4.85467 4.95849 4.9305 5.02237 4.99437L5.75112 5.72312Z" fill="white"/>
</svg>
