<svg width="121" height="33" viewBox="0 0 121 33" fill="none" xmlns="http://www.w3.org/2000/svg">
<path d="M15.5 1.5C7.21546 1.5 0.5 8.21546 0.5 16.5C0.5 24.7845 7.21546 31.5 15.5 31.5C23.7845 31.5 30.5 24.7845 30.5 16.5C30.5 8.21648 23.7845 1.50102 15.5 1.5ZM22.3792 23.1336C22.11 23.5757 21.5338 23.7139 21.0937 23.4447C17.5716 21.2922 13.1377 20.806 7.91658 21.9985C7.413 22.1141 6.91146 21.7989 6.79683 21.2953C6.68117 20.7917 6.99539 20.2902 7.5 20.1755C13.2134 18.8705 18.1152 19.4324 22.0691 21.848C22.5092 22.1192 22.6494 22.6935 22.3792 23.1336ZM24.2144 19.0507C23.8756 19.6013 23.1551 19.7733 22.6054 19.4355C18.5747 16.9575 12.4273 16.24 7.65865 17.6873C7.04043 17.8746 6.38741 17.5256 6.19908 16.9084C6.01279 16.2902 6.36182 15.6382 6.97902 15.4498C12.4263 13.7968 19.1991 14.5972 23.8286 17.4427C24.3792 17.7815 24.5532 18.501 24.2144 19.0507ZM24.3721 14.7968C19.5368 11.9258 11.5614 11.6617 6.94524 13.0619C6.2042 13.2871 5.42016 12.8685 5.19601 12.1274C4.97185 11.3864 5.38946 10.6024 6.13153 10.3772C11.4304 8.76919 20.238 9.07933 25.804 12.3833C26.4703 12.7794 26.6894 13.6402 26.2943 14.3055C25.9002 14.9729 25.0374 15.1929 24.3721 14.7968Z" fill="#1DB954"/>
<path d="M44.43 10.1C43.93 10.1 43.47 10.0133 43.05 9.84C42.63 9.66 42.2667 9.41 41.96 9.09C41.6533 8.76333 41.4133 8.38 41.24 7.94C41.0733 7.5 40.99 7.02 40.99 6.5C40.99 5.98667 41.0733 5.51667 41.24 5.09C41.4133 4.65667 41.6567 4.28 41.97 3.96C42.2833 3.63333 42.6467 3.38333 43.06 3.21C43.4733 3.03667 43.9267 2.95 44.42 2.95C44.7467 2.95 45.07 3.00333 45.39 3.11C45.71 3.21 46.0033 3.35 46.27 3.53C46.5433 3.71 46.7667 3.91667 46.94 4.15L46.4 4.71C46.2333 4.51 46.04 4.33667 45.82 4.19C45.6067 4.04333 45.38 3.93 45.14 3.85C44.9 3.77 44.66 3.73 44.42 3.73C44.0467 3.73 43.6967 3.8 43.37 3.94C43.05 4.07333 42.7733 4.26333 42.54 4.51C42.3067 4.75667 42.1233 5.05 41.99 5.39C41.8633 5.73 41.8 6.1 41.8 6.5C41.8 6.91333 41.8633 7.29333 41.99 7.64C42.1233 7.98667 42.31 8.28667 42.55 8.54C42.7967 8.78667 43.0833 8.98 43.41 9.12C43.7433 9.25333 44.1133 9.32 44.52 9.32C44.76 9.32 45 9.28667 45.24 9.22C45.48 9.14667 45.7 9.04667 45.9 8.92C46.1 8.79333 46.27 8.65 46.41 8.49L46.81 9.14C46.6567 9.32667 46.45 9.49333 46.19 9.64C45.9367 9.78 45.6567 9.89333 45.35 9.98C45.0433 10.06 44.7367 10.1 44.43 10.1ZM50.2978 10.1C49.7778 10.1 49.3145 9.98333 48.9078 9.75C48.5078 9.51667 48.1911 9.19333 47.9578 8.78C47.7311 8.36667 47.6178 7.89667 47.6178 7.37C47.6178 6.85 47.7311 6.38667 47.9578 5.98C48.1911 5.57333 48.5078 5.25333 48.9078 5.02C49.3145 4.78667 49.7778 4.67 50.2978 4.67C50.8111 4.67 51.2678 4.78667 51.6678 5.02C52.0745 5.25333 52.3911 5.57333 52.6178 5.98C52.8511 6.38667 52.9678 6.85 52.9678 7.37C52.9678 7.89667 52.8511 8.36667 52.6178 8.78C52.3911 9.19333 52.0745 9.51667 51.6678 9.75C51.2678 9.98333 50.8111 10.1 50.2978 10.1ZM50.2978 9.39C50.6645 9.39 50.9911 9.30333 51.2778 9.13C51.5645 8.95 51.7878 8.71 51.9478 8.41C52.1078 8.10333 52.1878 7.75667 52.1878 7.37C52.1878 6.98333 52.1078 6.64 51.9478 6.34C51.7878 6.04 51.5645 5.80667 51.2778 5.64C50.9911 5.46667 50.6645 5.38 50.2978 5.38C49.9311 5.38 49.6011 5.46667 49.3078 5.64C49.0211 5.80667 48.7945 6.04333 48.6278 6.35C48.4678 6.65 48.3911 6.99 48.3978 7.37C48.3911 7.75667 48.4678 8.10333 48.6278 8.41C48.7945 8.71 49.0211 8.95 49.3078 9.13C49.6011 9.30333 49.9311 9.39 50.2978 9.39ZM54.062 10V4.78H54.802L54.832 5.87L54.712 5.92C54.7787 5.69333 54.9087 5.48667 55.102 5.3C55.2954 5.11333 55.5254 4.96333 55.792 4.85C56.0654 4.73 56.3454 4.67 56.632 4.67C57.0187 4.67 57.342 4.74667 57.602 4.9C57.862 5.05333 58.0587 5.29 58.192 5.61C58.3254 5.93 58.392 6.33667 58.392 6.83V10H57.632V6.87C57.632 6.52333 57.5854 6.24 57.492 6.02C57.4054 5.79333 57.2687 5.62667 57.082 5.52C56.8954 5.41333 56.6654 5.36333 56.392 5.37C56.1654 5.37 55.9554 5.41 55.762 5.49C55.5687 5.56333 55.402 5.66667 55.262 5.8C55.122 5.93333 55.012 6.08667 54.932 6.26C54.852 6.43333 54.812 6.62 54.812 6.82V10H54.442C54.3954 10 54.342 10 54.282 10C54.222 10 54.1487 10 54.062 10ZM59.8238 10V4.78H60.5637L60.5938 5.87L60.4738 5.92C60.5404 5.69333 60.6704 5.48667 60.8638 5.3C61.0571 5.11333 61.2871 4.96333 61.5538 4.85C61.8271 4.73 62.1071 4.67 62.3938 4.67C62.7804 4.67 63.1038 4.74667 63.3638 4.9C63.6238 5.05333 63.8204 5.29 63.9538 5.61C64.0871 5.93 64.1538 6.33667 64.1538 6.83V10H63.3938V6.87C63.3938 6.52333 63.3471 6.24 63.2538 6.02C63.1671 5.79333 63.0304 5.62667 62.8438 5.52C62.6571 5.41333 62.4271 5.36333 62.1538 5.37C61.9271 5.37 61.7171 5.41 61.5238 5.49C61.3304 5.56333 61.1638 5.66667 61.0238 5.8C60.8838 5.93333 60.7738 6.08667 60.6938 6.26C60.6138 6.43333 60.5738 6.62 60.5738 6.82V10H60.2038C60.1571 10 60.1038 10 60.0438 10C59.9838 10 59.9104 10 59.8238 10ZM67.8855 10.1C67.3655 10.1 66.9021 9.98667 66.4955 9.76C66.0955 9.53333 65.7821 9.21667 65.5555 8.81C65.3288 8.40333 65.2155 7.93667 65.2155 7.41C65.2155 7.00333 65.2788 6.63667 65.4055 6.31C65.5321 5.97667 65.7088 5.68667 65.9355 5.44C66.1688 5.19333 66.4455 5.00333 66.7655 4.87C67.0855 4.73 67.4321 4.66 67.8055 4.66C68.1588 4.66 68.4788 4.72333 68.7655 4.85C69.0588 4.97667 69.3088 5.15333 69.5155 5.38C69.7288 5.6 69.8888 5.86333 69.9955 6.17C70.1021 6.47667 70.1488 6.81333 70.1355 7.18L70.1255 7.53H65.7755L65.6655 6.9H69.5555L69.3755 7.07V6.83C69.3621 6.59 69.2921 6.36 69.1655 6.14C69.0388 5.91333 68.8588 5.73 68.6255 5.59C68.3988 5.45 68.1255 5.38 67.8055 5.38C67.4321 5.38 67.1088 5.45667 66.8355 5.61C66.5621 5.75667 66.3521 5.97667 66.2055 6.27C66.0588 6.56333 65.9855 6.92667 65.9855 7.36C65.9855 7.77333 66.0655 8.13333 66.2255 8.44C66.3855 8.74 66.6121 8.97333 66.9055 9.14C67.2055 9.30667 67.5655 9.39 67.9855 9.39C68.2321 9.39 68.4755 9.35 68.7155 9.27C68.9621 9.18333 69.2321 9.01667 69.5255 8.77L69.9155 9.31C69.7621 9.46333 69.5788 9.6 69.3655 9.72C69.1521 9.83333 68.9188 9.92667 68.6655 10C68.4121 10.0667 68.1521 10.1 67.8855 10.1ZM73.4007 10.1C72.9074 10.1 72.4674 9.98333 72.0807 9.75C71.694 9.51 71.3874 9.18667 71.1607 8.78C70.9407 8.36667 70.8307 7.9 70.8307 7.38C70.8307 6.86 70.9407 6.39667 71.1607 5.99C71.3874 5.57667 71.694 5.25333 72.0807 5.02C72.4674 4.78667 72.9107 4.67 73.4107 4.67C73.8574 4.67 74.264 4.76 74.6307 4.94C74.9974 5.11333 75.2907 5.35667 75.5107 5.67L75.0707 6.21C74.944 6.04333 74.7907 5.89667 74.6107 5.77C74.4374 5.64333 74.2474 5.54667 74.0407 5.48C73.8407 5.40667 73.6407 5.37 73.4407 5.37C73.0874 5.37 72.7707 5.46 72.4907 5.64C72.2107 5.81333 71.9874 6.05 71.8207 6.35C71.6607 6.65 71.5807 6.99333 71.5807 7.38C71.5807 7.76667 71.6607 8.11333 71.8207 8.42C71.9874 8.72 72.2107 8.95667 72.4907 9.13C72.7707 9.30333 73.084 9.39 73.4307 9.39C73.6307 9.39 73.8274 9.36 74.0207 9.3C74.214 9.23333 74.3974 9.14 74.5707 9.02C74.744 8.9 74.904 8.75 75.0507 8.57L75.4907 9.11C75.264 9.41 74.9607 9.65 74.5807 9.83C74.2007 10.01 73.8074 10.1 73.4007 10.1ZM77.1844 10V3.41H77.9344V10H77.1844ZM76.0044 5.5V4.78H79.2544V5.5H76.0044ZM83.698 10V3.41H84.448V10H83.698ZM82.518 5.5V4.78H85.768V5.5H82.518ZM88.9502 10.1C88.4302 10.1 87.9668 9.98333 87.5602 9.75C87.1602 9.51667 86.8435 9.19333 86.6102 8.78C86.3835 8.36667 86.2702 7.89667 86.2702 7.37C86.2702 6.85 86.3835 6.38667 86.6102 5.98C86.8435 5.57333 87.1602 5.25333 87.5602 5.02C87.9668 4.78667 88.4302 4.67 88.9502 4.67C89.4635 4.67 89.9202 4.78667 90.3202 5.02C90.7268 5.25333 91.0435 5.57333 91.2702 5.98C91.5035 6.38667 91.6202 6.85 91.6202 7.37C91.6202 7.89667 91.5035 8.36667 91.2702 8.78C91.0435 9.19333 90.7268 9.51667 90.3202 9.75C89.9202 9.98333 89.4635 10.1 88.9502 10.1ZM88.9502 9.39C89.3168 9.39 89.6435 9.30333 89.9302 9.13C90.2168 8.95 90.4402 8.71 90.6002 8.41C90.7602 8.10333 90.8402 7.75667 90.8402 7.37C90.8402 6.98333 90.7602 6.64 90.6002 6.34C90.4402 6.04 90.2168 5.80667 89.9302 5.64C89.6435 5.46667 89.3168 5.38 88.9502 5.38C88.5835 5.38 88.2535 5.46667 87.9602 5.64C87.6735 5.80667 87.4468 6.04333 87.2802 6.35C87.1202 6.65 87.0435 6.99 87.0502 7.37C87.0435 7.75667 87.1202 8.10333 87.2802 8.41C87.4468 8.71 87.6735 8.95 87.9602 9.13C88.2535 9.30333 88.5835 9.39 88.9502 9.39Z" fill="white"/>
<path d="M45.556 29.16C44.9053 29.16 44.308 29.08 43.764 28.92C43.22 28.7493 42.7293 28.4987 42.292 28.168C41.8547 27.8373 41.4653 27.4373 41.124 26.968L42.484 25.432C43.0067 26.1573 43.5187 26.6587 44.02 26.936C44.5213 27.2133 45.0867 27.352 45.716 27.352C46.0787 27.352 46.4093 27.2987 46.708 27.192C47.0067 27.0747 47.2413 26.92 47.412 26.728C47.5827 26.5253 47.668 26.296 47.668 26.04C47.668 25.8587 47.6307 25.6933 47.556 25.544C47.492 25.384 47.3907 25.2453 47.252 25.128C47.1133 25 46.9427 24.8827 46.74 24.776C46.5373 24.6693 46.308 24.5787 46.052 24.504C45.796 24.4293 45.5133 24.36 45.204 24.296C44.6173 24.1787 44.1053 24.024 43.668 23.832C43.2307 23.6293 42.8627 23.384 42.564 23.096C42.2653 22.7973 42.0467 22.4667 41.908 22.104C41.7693 21.7307 41.7 21.3093 41.7 20.84C41.7 20.3707 41.8013 19.9387 42.004 19.544C42.2173 19.1493 42.5053 18.808 42.868 18.52C43.2307 18.232 43.652 18.008 44.132 17.848C44.612 17.688 45.1293 17.608 45.684 17.608C46.3133 17.608 46.8733 17.6827 47.364 17.832C47.8653 17.9813 48.3027 18.2053 48.676 18.504C49.06 18.792 49.3747 19.144 49.62 19.56L48.244 20.92C48.0307 20.5893 47.7907 20.3173 47.524 20.104C47.2573 19.88 46.9693 19.7147 46.66 19.608C46.3507 19.4907 46.0253 19.432 45.684 19.432C45.3 19.432 44.964 19.4853 44.676 19.592C44.3987 19.6987 44.18 19.8533 44.02 20.056C43.86 20.248 43.78 20.4827 43.78 20.76C43.78 20.9733 43.828 21.1653 43.924 21.336C44.02 21.496 44.1533 21.64 44.324 21.768C44.5053 21.896 44.7347 22.008 45.012 22.104C45.2893 22.2 45.604 22.2853 45.956 22.36C46.5427 22.4773 47.0707 22.6373 47.54 22.84C48.0093 23.032 48.4093 23.2667 48.74 23.544C49.0707 23.8107 49.3213 24.12 49.492 24.472C49.6627 24.8133 49.748 25.1973 49.748 25.624C49.748 26.36 49.572 26.9947 49.22 27.528C48.8787 28.0507 48.3933 28.456 47.764 28.744C47.1347 29.0213 46.3987 29.16 45.556 29.16ZM51.6833 32.52V20.568H53.6193L53.6513 22.488L53.3153 22.344C53.3793 22.0133 53.5606 21.704 53.8593 21.416C54.1579 21.1173 54.5206 20.8773 54.9473 20.696C55.3846 20.5147 55.8379 20.424 56.3073 20.424C57.0539 20.424 57.7153 20.6107 58.2913 20.984C58.8779 21.3573 59.3366 21.8693 59.6673 22.52C60.0086 23.1707 60.1793 23.9227 60.1793 24.776C60.1793 25.6187 60.0086 26.3707 59.6673 27.032C59.3366 27.6827 58.8779 28.2 58.2913 28.584C57.7153 28.9573 57.0646 29.144 56.3393 29.144C55.8486 29.144 55.3739 29.048 54.9153 28.856C54.4673 28.664 54.0833 28.4133 53.7633 28.104C53.4539 27.7947 53.2619 27.4693 53.1873 27.128L53.6673 26.904V32.52H51.6833ZM55.9393 27.4C56.3873 27.4 56.7873 27.288 57.1393 27.064C57.4913 26.84 57.7633 26.5307 57.9553 26.136C58.1579 25.7413 58.2593 25.288 58.2593 24.776C58.2593 24.264 58.1633 23.816 57.9713 23.432C57.7793 23.0373 57.5073 22.728 57.1553 22.504C56.8033 22.28 56.3979 22.168 55.9393 22.168C55.4699 22.168 55.0593 22.28 54.7073 22.504C54.3659 22.7173 54.0939 23.0213 53.8913 23.416C53.6886 23.8107 53.5873 24.264 53.5873 24.776C53.5873 25.288 53.6886 25.7413 53.8913 26.136C54.0939 26.5307 54.3659 26.84 54.7073 27.064C55.0593 27.288 55.4699 27.4 55.9393 27.4ZM65.7893 29.16C64.9466 29.16 64.1946 28.9733 63.5333 28.6C62.8719 28.216 62.3493 27.6933 61.9653 27.032C61.5813 26.3707 61.3893 25.6187 61.3893 24.776C61.3893 23.9333 61.5813 23.1813 61.9653 22.52C62.3493 21.8587 62.8719 21.3413 63.5333 20.968C64.1946 20.584 64.9466 20.392 65.7893 20.392C66.6213 20.392 67.3679 20.584 68.0293 20.968C68.6906 21.3413 69.2079 21.8587 69.5813 22.52C69.9653 23.1813 70.1573 23.9333 70.1573 24.776C70.1573 25.6187 69.9653 26.3707 69.5813 27.032C69.2079 27.6933 68.6906 28.216 68.0293 28.6C67.3679 28.9733 66.6213 29.16 65.7893 29.16ZM65.7893 27.416C66.2479 27.416 66.6533 27.2987 67.0053 27.064C67.3679 26.8293 67.6506 26.5147 67.8533 26.12C68.0666 25.7253 68.1679 25.2773 68.1573 24.776C68.1679 24.264 68.0666 23.8107 67.8533 23.416C67.6506 23.0213 67.3679 22.712 67.0053 22.488C66.6533 22.2533 66.2479 22.136 65.7893 22.136C65.3306 22.136 64.9146 22.2533 64.5413 22.488C64.1786 22.712 63.8959 23.0267 63.6933 23.432C63.4906 23.8267 63.3893 24.2747 63.3893 24.776C63.3893 25.2773 63.4906 25.7253 63.6933 26.12C63.8959 26.5147 64.1786 26.8293 64.5413 27.064C64.9146 27.2987 65.3306 27.416 65.7893 27.416ZM72.8296 29V18.424H74.7976V29H72.8296ZM71.1656 22.392V20.568H76.6376V22.392H71.1656ZM78.3604 29V20.568H80.3284V29H78.3604ZM79.3204 18.776C78.9257 18.776 78.6164 18.68 78.3924 18.488C78.179 18.2853 78.0724 18.0027 78.0724 17.64C78.0724 17.2987 78.1844 17.0213 78.4084 16.808C78.6324 16.5947 78.9364 16.488 79.3204 16.488C79.7257 16.488 80.035 16.5893 80.2484 16.792C80.4724 16.984 80.5844 17.2667 80.5844 17.64C80.5844 17.9707 80.4724 18.2427 80.2484 18.456C80.0244 18.6693 79.715 18.776 79.3204 18.776ZM83.5919 29V19.816C83.5919 19.304 83.7039 18.8507 83.9279 18.456C84.1519 18.0507 84.4612 17.736 84.8559 17.512C85.2505 17.2773 85.7092 17.16 86.2319 17.16C86.5945 17.16 86.9305 17.224 87.2399 17.352C87.5492 17.4693 87.8105 17.6347 88.0239 17.848L87.4159 19.336C87.2772 19.2187 87.1279 19.128 86.9679 19.064C86.8185 19 86.6745 18.968 86.5359 18.968C86.3225 18.968 86.1412 19.0053 85.9919 19.08C85.8532 19.144 85.7465 19.2453 85.6719 19.384C85.6079 19.5227 85.5759 19.688 85.5759 19.88V29H84.5839C84.3919 29 84.2105 29 84.0399 29C83.8799 29 83.7305 29 83.5919 29ZM82.2799 22.472V20.744H87.4799V22.472H82.2799ZM90.3851 32.68L92.1771 28.536L92.1931 29.848L88.0331 20.568H90.3051L92.6251 26.072C92.6998 26.2107 92.7745 26.3973 92.8491 26.632C92.9238 26.856 92.9878 27.08 93.0411 27.304L92.6411 27.432C92.7158 27.2293 92.7958 27.016 92.8811 26.792C92.9665 26.5573 93.0465 26.3173 93.1211 26.072L95.1051 20.568H97.3931L93.8731 29L92.4331 32.68H90.3851Z" fill="white"/>
</svg>
